<svg width="411" height="225" viewBox="0 0 411 225" fill="none" xmlns="http://www.w3.org/2000/svg">
<g clip-path="url(#clip0_1706_470)">
<path d="M300.104 110.16C304.056 110.16 308.03 109.84 311.982 109.156L317.728 108.173L315.058 102.982C299.741 73.2889 267.036 54.6183 233.689 56.434L227.836 56.7545L229.951 62.2232C241.059 91.0409 269.92 110.139 300.104 110.139V110.16ZM304.377 101.487C278.208 103.303 252.36 88.5202 240.461 64.9149C266.181 65.6625 290.705 79.6975 304.377 101.487Z" fill="white"/>
<path d="M405.251 175.462C387.969 128.337 361.031 87.321 327.322 56.837C268.319 3.47411 206.219 10.9936 170.971 33.6376C149.524 47.3949 124.936 54.8504 103.531 54.0172C64.1387 52.5005 28.3355 32.42 7.78502 0.3125L0.585938 4.92675C9.00267 18.0645 19.7906 29.3011 32.2448 38.2946C37.4572 56.9652 48.1811 72.9655 62.4083 84.7148C75.1616 136.903 118.527 170.805 169.369 170.805C175.586 170.805 181.909 170.292 188.296 169.267L186.929 160.829C136.172 169.074 90.1365 140.769 73.6449 92.6829C87.744 101.185 104.193 106.013 121.539 106.013C125.769 106.013 130.02 105.735 134.164 105.158L133.011 96.699C129.251 97.2117 125.384 97.4681 121.539 97.4681C87.2313 97.4681 56.7687 76.7039 43.8445 45.75C61.5752 55.8117 81.8907 61.729 103.189 62.5408C126.346 63.4166 152.707 55.5126 175.586 40.8153C208.313 19.7949 266.183 13.0444 321.597 63.1603C351.226 89.9699 375.494 125.218 392.284 165.72C369.768 152.027 344.155 144.85 317.431 144.85C270.199 144.85 229.312 176.829 218.032 222.651L226.321 224.702C236.682 182.725 274.13 153.416 317.431 153.416C346.975 153.416 375.088 162.73 398.693 180.354L410.207 188.941L405.273 175.462H405.251Z" fill="white"/>
</g>
<defs>
<clipPath id="clip0_1706_470">
<rect width="409.6" height="224.411" fill="white" transform="translate(0.710938 0.375)"/>
</clipPath>
</defs>
</svg>
