<svg width="1602" height="268" viewBox="0 0 1602 268" fill="none" xmlns="http://www.w3.org/2000/svg">
<g clip-path="url(#clip0_1706_438)">
<path d="M357.568 131.211C362.282 131.211 367.022 130.829 371.736 130.014L378.591 128.841L375.406 122.649C357.134 87.2279 318.12 64.956 278.342 67.122L271.359 67.5043L273.882 74.0279C287.133 108.404 321.56 131.186 357.568 131.186V131.211ZM362.664 120.865C331.448 123.031 300.614 105.397 286.42 77.2387C317.101 78.1306 346.355 94.8728 362.664 120.865Z" fill="white"/>
<path d="M483.064 209.087C462.448 152.872 430.315 103.945 390.103 67.5812C319.719 3.92526 245.641 12.8952 203.594 39.9069C178.01 56.3179 148.679 65.2113 123.145 64.2175C76.155 62.4082 33.4459 38.4544 8.93145 0.153809L0.34375 5.65809C10.384 21.33 23.2528 34.7339 38.1092 45.4622C44.327 67.7341 57.1194 86.8207 74.0909 100.836C89.3041 163.091 141.034 203.532 201.683 203.532C209.099 203.532 216.642 202.92 224.261 201.697L222.63 191.631C162.083 201.468 107.168 167.703 87.4949 110.341C104.313 120.483 123.935 126.243 144.627 126.243C149.673 126.243 154.744 125.911 159.688 125.223L158.311 115.132C153.827 115.744 149.214 116.049 144.627 116.049C103.702 116.049 67.3635 91.2802 51.9464 54.3557C73.0971 66.3581 97.3312 73.4168 122.738 74.3851C150.361 75.4299 181.807 66.0013 209.099 48.4692C248.138 23.3941 317.171 15.3415 383.273 75.1241C418.618 107.105 447.567 149.152 467.596 197.467C440.737 181.133 410.183 172.57 378.304 172.57C321.962 172.57 273.188 210.718 259.733 265.379L269.62 267.825C281.979 217.751 326.651 182.789 378.304 182.789C413.547 182.789 447.082 193.899 475.241 214.923L488.976 225.167L483.09 209.087H483.064Z" fill="white"/>
</g>
<path d="M574.498 188.5V89.5571H618.839C629.832 89.5571 638.302 92.2852 644.246 97.7413C650.191 103.116 653.163 110.527 653.163 119.973C653.163 129.338 650.15 136.748 644.124 142.205C638.179 147.661 629.751 150.389 618.839 150.389H588.545V188.5H574.498ZM588.545 138.54H618.106C625.028 138.54 630.28 136.871 633.863 133.532C637.447 130.193 639.238 125.673 639.238 119.973C639.238 114.191 637.447 109.671 633.863 106.414C630.28 103.075 625.028 101.406 618.106 101.406H588.545V138.54ZM663.551 188.5V85.8926H677.232V126.936H677.721C680.082 122.701 683.38 119.484 687.615 117.286C691.849 115.005 696.858 113.865 702.639 113.865C711.842 113.865 719.13 116.593 724.505 122.049C729.961 127.424 732.689 134.631 732.689 143.67V188.5H719.008V145.991C719.008 139.395 717.216 134.387 713.633 130.967C710.131 127.546 704.96 125.836 698.12 125.836C691.361 125.836 686.19 127.546 682.607 130.967C679.023 134.387 677.232 139.395 677.232 145.991V188.5H663.551ZM782.26 189.966C774.687 189.966 768.05 188.419 762.349 185.324C756.731 182.148 752.374 177.71 749.279 172.01C746.185 166.309 744.637 159.591 744.637 151.854C744.637 144.118 746.185 137.4 749.279 131.699C752.374 125.999 756.731 121.602 762.349 118.507C768.05 115.331 774.687 113.743 782.26 113.743C790.078 113.743 796.756 115.29 802.293 118.385C807.912 121.479 812.228 125.877 815.241 131.577C818.336 137.278 819.883 144.037 819.883 151.854C819.883 159.591 818.336 166.35 815.241 172.132C812.228 177.832 807.912 182.23 802.293 185.324C796.674 188.419 789.996 189.966 782.26 189.966ZM782.26 177.995C789.834 177.995 795.697 175.715 799.85 171.154C804.085 166.513 806.202 160.079 806.202 151.854C806.202 143.548 804.085 137.115 799.85 132.555C795.697 127.994 789.834 125.714 782.26 125.714C774.768 125.714 768.905 128.035 764.67 132.677C760.436 137.237 758.318 143.63 758.318 151.854C758.318 160.079 760.436 166.513 764.67 171.154C768.905 175.715 774.768 177.995 782.26 177.995ZM865.66 189.966C858.005 189.966 851.368 188.419 845.749 185.324C840.13 182.148 835.774 177.669 832.679 171.887C829.666 166.106 828.159 159.346 828.159 151.61C828.159 143.874 829.666 137.196 832.679 131.577C835.774 125.877 840.09 121.479 845.627 118.385C851.165 115.29 857.639 113.743 865.049 113.743C872.134 113.743 878.242 115.168 883.372 118.018C888.584 120.869 892.615 124.9 895.465 130.111C898.315 135.323 899.74 141.512 899.74 148.679V154.175H841.352C841.759 161.83 844.08 167.816 848.314 172.132C852.631 176.366 858.372 178.484 865.538 178.484C870.505 178.484 874.699 177.466 878.12 175.43C881.54 173.312 883.901 170.218 885.204 166.146H899.13C897.338 173.72 893.47 179.583 887.525 183.736C881.662 187.889 874.374 189.966 865.66 189.966ZM841.84 144.159H886.548C885.896 138.133 883.657 133.45 879.83 130.111C876.084 126.773 871.116 125.103 864.927 125.103C858.82 125.103 853.73 126.773 849.658 130.111C845.586 133.45 842.981 138.133 841.84 144.159ZM915.289 188.5V129.379H908.204V115.209H922.862V126.447H927.993C930.517 122.375 933.978 119.281 938.375 117.163C942.773 114.965 947.944 113.865 953.889 113.865C963.335 113.865 970.786 116.593 976.242 122.049C981.699 127.424 984.427 134.631 984.427 143.67V188.5H970.746V145.991C970.746 139.395 968.954 134.387 965.371 130.967C961.869 127.546 956.698 125.836 949.858 125.836C943.099 125.836 937.928 127.546 934.344 130.967C930.761 134.387 928.97 139.395 928.97 145.991V188.5H915.289ZM1001.23 188.5V115.209H1014.92V188.5H1001.23ZM1008.08 105.193C1005.8 105.193 1003.84 104.378 1002.21 102.75C1000.58 101.121 999.769 99.1664 999.769 96.8862C999.769 94.6061 1000.58 92.6516 1002.21 91.0229C1003.84 89.3943 1005.8 88.5799 1008.08 88.5799C1010.36 88.5799 1012.31 89.3943 1013.94 91.0229C1015.57 92.6516 1016.38 94.6061 1016.38 96.8862C1016.38 99.1664 1015.57 101.121 1013.94 102.75C1012.31 104.378 1010.36 105.193 1008.08 105.193ZM1022.08 188.5L1051.15 150.877L1023.54 115.209H1038.69L1059.45 141.838L1080.22 115.209H1095.12L1067.52 150.877L1096.59 188.5H1081.07L1059.09 160.039L1037.22 188.5H1022.08ZM1140.61 188.5V89.5571H1161.01L1195.21 169.322H1195.7L1230.03 89.5571H1250.3V188.5H1236.25V106.048H1235.77L1200.71 188.5H1189.35L1154.17 105.925H1153.68V188.5H1140.61ZM1290.77 189.844C1282.47 189.844 1275.91 187.808 1271.11 183.736C1266.38 179.583 1264.02 174.168 1264.02 167.49C1264.02 160.487 1266.38 155.071 1271.11 151.244C1275.83 147.335 1282.63 145.38 1291.5 145.38H1316.55V142.082C1316.55 130.763 1310.32 125.103 1297.86 125.103C1287.68 125.103 1281.53 128.931 1279.41 136.586H1265.61C1266.83 129.338 1270.29 123.719 1275.99 119.729C1281.77 115.738 1289.14 113.743 1298.1 113.743C1308.28 113.743 1316.06 116.145 1321.43 120.95C1326.89 125.755 1329.62 132.677 1329.62 141.716V174.33H1336.21V188.5H1321.55V177.262H1316.42C1313.9 181.171 1310.44 184.265 1306.04 186.546C1301.64 188.744 1296.55 189.844 1290.77 189.844ZM1292.6 178.85C1297 178.85 1301.03 177.954 1304.7 176.163C1308.36 174.371 1311.25 171.928 1313.37 168.834C1315.49 165.739 1316.55 162.36 1316.55 158.695V155.397H1292.36C1282.1 155.397 1276.97 159.224 1276.97 166.879C1276.97 170.544 1278.35 173.475 1281.12 175.674C1283.89 177.791 1287.72 178.85 1292.6 178.85ZM1350.91 188.5V129.379H1343.83V115.209H1358.49V128.89H1363.62C1365.65 124.411 1368.79 120.909 1373.02 118.385C1377.34 115.86 1382.39 114.598 1388.17 114.598H1394.16V126.325H1387.44C1380.11 126.325 1374.45 128.483 1370.46 132.799C1366.47 137.115 1364.47 142.937 1364.47 150.267V188.5H1350.91ZM1403.72 188.5V85.8926H1417.4V148.19H1417.89L1453.19 115.209H1469.93L1436.34 145.503L1472.74 188.5H1456.12L1427.05 153.931L1417.4 161.749V188.5H1403.72ZM1511 189.966C1503.35 189.966 1496.71 188.419 1491.09 185.324C1485.47 182.148 1481.11 177.669 1478.02 171.887C1475.01 166.106 1473.5 159.346 1473.5 151.61C1473.5 143.874 1475.01 137.196 1478.02 131.577C1481.11 125.877 1485.43 121.479 1490.97 118.385C1496.5 115.29 1502.98 113.743 1510.39 113.743C1517.47 113.743 1523.58 115.168 1528.71 118.018C1533.92 120.869 1537.95 124.9 1540.81 130.111C1543.66 135.323 1545.08 141.512 1545.08 148.679V154.175H1486.69C1487.1 161.83 1489.42 167.816 1493.65 172.132C1497.97 176.366 1503.71 178.484 1510.88 178.484C1515.85 178.484 1520.04 177.466 1523.46 175.43C1526.88 173.312 1529.24 170.218 1530.54 166.146H1544.47C1542.68 173.72 1538.81 179.583 1532.87 183.736C1527 187.889 1519.71 189.966 1511 189.966ZM1487.18 144.159H1531.89C1531.24 138.133 1529 133.45 1525.17 130.111C1521.42 126.773 1516.46 125.103 1510.27 125.103C1504.16 125.103 1499.07 126.773 1495 130.111C1490.93 133.45 1488.32 138.133 1487.18 144.159ZM1575.78 188.5C1571.87 188.5 1568.81 187.523 1566.61 185.568C1564.5 183.532 1563.44 180.519 1563.44 176.529V125.714H1549.76V115.209H1563.56V93.2217H1577V115.209H1596.17V125.714H1577.12V177.751H1598.13V188.5H1575.78Z" fill="white"/>
<defs>
<clipPath id="clip0_1706_438">
<rect width="488.607" height="267.697" fill="white" transform="translate(0.351562 0.151855)"/>
</clipPath>
</defs>
</svg>
