<svg width="1602" height="268" viewBox="0 0 1602 268" fill="none" xmlns="http://www.w3.org/2000/svg">
<g clip-path="url(#clip0_1706_414)">
<path d="M357.763 131.211C362.477 131.211 367.217 130.829 371.931 130.014L378.786 128.841L375.601 122.649C357.33 87.2279 318.316 64.956 278.537 67.122L271.555 67.5043L274.077 74.0279C287.329 108.404 321.756 131.186 357.763 131.186V131.211ZM362.859 120.865C331.643 123.031 300.809 105.397 286.615 77.2387C317.296 78.1306 346.55 94.8728 362.859 120.865Z" fill="black"/>
<path d="M483.259 209.087C462.644 152.872 430.51 103.945 390.298 67.5812C319.915 3.92526 245.836 12.8952 203.79 39.9069C178.205 56.3179 148.874 65.2113 123.341 64.2175C76.3503 62.4082 33.6412 38.4544 9.12676 0.153809L0.539062 5.65809C10.5793 21.33 23.4481 34.7339 38.3045 45.4622C44.5223 67.7341 57.3147 86.8207 74.2862 100.836C89.4994 163.091 141.229 203.532 201.878 203.532C209.294 203.532 216.837 202.92 224.456 201.697L222.825 191.631C162.278 201.468 107.363 167.703 87.6902 110.341C104.509 120.483 124.131 126.243 144.823 126.243C149.868 126.243 154.939 125.911 159.883 125.223L158.507 115.132C154.022 115.744 149.409 116.049 144.823 116.049C103.897 116.049 67.5588 91.2802 52.1417 54.3557C73.2924 66.3581 97.5265 73.4168 122.933 74.3851C150.556 75.4299 182.002 66.0013 209.294 48.4692C248.334 23.3941 317.366 15.3415 383.469 75.1241C418.813 107.105 447.762 149.152 467.791 197.467C440.932 181.133 410.379 172.57 378.5 172.57C322.157 172.57 273.383 210.718 259.928 265.379L269.816 267.825C282.175 217.751 326.846 182.789 378.5 182.789C413.742 182.789 447.278 193.899 475.436 214.923L489.171 225.167L483.285 209.087H483.259Z" fill="black"/>
</g>
<path d="M574.693 188.5V89.5571H619.034C630.028 89.5571 638.497 92.2852 644.442 97.7413C650.386 103.116 653.359 110.527 653.359 119.973C653.359 129.338 650.346 136.748 644.32 142.205C638.375 147.661 629.946 150.389 619.034 150.389H588.741V188.5H574.693ZM588.741 138.54H618.301C625.223 138.54 630.476 136.871 634.059 133.532C637.642 130.193 639.433 125.673 639.433 119.973C639.433 114.191 637.642 109.671 634.059 106.414C630.476 103.075 625.223 101.406 618.301 101.406H588.741V138.54ZM663.746 188.5V85.8926H677.427V126.936H677.916C680.277 122.701 683.576 119.484 687.81 117.286C692.045 115.005 697.053 113.865 702.835 113.865C712.037 113.865 719.325 116.593 724.7 122.049C730.156 127.424 732.884 134.631 732.884 143.67V188.5H719.203V145.991C719.203 139.395 717.412 134.387 713.828 130.967C710.327 127.546 705.156 125.836 698.315 125.836C691.556 125.836 686.385 127.546 682.802 130.967C679.219 134.387 677.427 139.395 677.427 145.991V188.5H663.746ZM782.456 189.966C774.882 189.966 768.245 188.419 762.545 185.324C756.926 182.148 752.569 177.71 749.475 172.01C746.38 166.309 744.833 159.591 744.833 151.854C744.833 144.118 746.38 137.4 749.475 131.699C752.569 125.999 756.926 121.602 762.545 118.507C768.245 115.331 774.882 113.743 782.456 113.743C790.273 113.743 796.951 115.29 802.488 118.385C808.107 121.479 812.423 125.877 815.436 131.577C818.531 137.278 820.078 144.037 820.078 151.854C820.078 159.591 818.531 166.35 815.436 172.132C812.423 177.832 808.107 182.23 802.488 185.324C796.869 188.419 790.192 189.966 782.456 189.966ZM782.456 177.995C790.029 177.995 795.892 175.715 800.045 171.154C804.28 166.513 806.397 160.079 806.397 151.854C806.397 143.548 804.28 137.115 800.045 132.555C795.892 127.994 790.029 125.714 782.456 125.714C774.964 125.714 769.1 128.035 764.866 132.677C760.631 137.237 758.514 143.63 758.514 151.854C758.514 160.079 760.631 166.513 764.866 171.154C769.1 175.715 774.964 177.995 782.456 177.995ZM865.855 189.966C858.201 189.966 851.564 188.419 845.945 185.324C840.326 182.148 835.969 177.669 832.874 171.887C829.861 166.106 828.355 159.346 828.355 151.61C828.355 143.874 829.861 137.196 832.874 131.577C835.969 125.877 840.285 121.479 845.822 118.385C851.36 115.29 857.834 113.743 865.245 113.743C872.329 113.743 878.437 115.168 883.567 118.018C888.779 120.869 892.81 124.9 895.66 130.111C898.511 135.323 899.936 141.512 899.936 148.679V154.175H841.547C841.954 161.83 844.275 167.816 848.51 172.132C852.826 176.366 858.567 178.484 865.733 178.484C870.701 178.484 874.895 177.466 878.315 175.43C881.735 173.312 884.097 170.218 885.4 166.146H899.325C897.533 173.72 893.665 179.583 887.721 183.736C881.857 187.889 874.569 189.966 865.855 189.966ZM842.036 144.159H886.743C886.092 138.133 883.852 133.45 880.025 130.111C876.279 126.773 871.311 125.103 865.122 125.103C859.015 125.103 853.925 126.773 849.853 130.111C845.782 133.45 843.176 138.133 842.036 144.159ZM915.484 188.5V129.379H908.399V115.209H923.057V126.447H928.188C930.712 122.375 934.173 119.281 938.571 117.163C942.968 114.965 948.139 113.865 954.084 113.865C963.53 113.865 970.982 116.593 976.438 122.049C981.894 127.424 984.622 134.631 984.622 143.67V188.5H970.941V145.991C970.941 139.395 969.149 134.387 965.566 130.967C962.065 127.546 956.893 125.836 950.053 125.836C943.294 125.836 938.123 127.546 934.54 130.967C930.957 134.387 929.165 139.395 929.165 145.991V188.5H915.484ZM1001.43 188.5V115.209H1015.11V188.5H1001.43ZM1008.27 105.193C1005.99 105.193 1004.04 104.378 1002.41 102.75C1000.78 101.121 999.964 99.1664 999.964 96.8862C999.964 94.6061 1000.78 92.6516 1002.41 91.0229C1004.04 89.3943 1005.99 88.5799 1008.27 88.5799C1010.55 88.5799 1012.51 89.3943 1014.13 91.0229C1015.76 92.6516 1016.58 94.6061 1016.58 96.8862C1016.58 99.1664 1015.76 101.121 1014.13 102.75C1012.51 104.378 1010.55 105.193 1008.27 105.193ZM1022.27 188.5L1051.34 150.877L1023.74 115.209H1038.88L1059.65 141.838L1080.42 115.209H1095.32L1067.71 150.877L1096.78 188.5H1081.27L1059.28 160.039L1037.42 188.5H1022.27ZM1140.81 188.5V89.5571H1161.2L1195.41 169.322H1195.9L1230.22 89.5571H1250.5V188.5H1236.45V106.048H1235.96L1200.9 188.5H1189.54L1154.36 105.925H1153.88V188.5H1140.81ZM1290.97 189.844C1282.66 189.844 1276.11 187.808 1271.3 183.736C1266.58 179.583 1264.22 174.168 1264.22 167.49C1264.22 160.487 1266.58 155.071 1271.3 151.244C1276.02 147.335 1282.82 145.38 1291.7 145.38H1316.74V142.082C1316.74 130.763 1310.51 125.103 1298.05 125.103C1287.87 125.103 1281.72 128.931 1279.61 136.586H1265.8C1267.03 129.338 1270.49 123.719 1276.19 119.729C1281.97 115.738 1289.34 113.743 1298.3 113.743C1308.48 113.743 1316.25 116.145 1321.63 120.95C1327.08 125.755 1329.81 132.677 1329.81 141.716V174.33H1336.41V188.5H1321.75V177.262H1316.62C1314.09 181.171 1310.63 184.265 1306.24 186.546C1301.84 188.744 1296.75 189.844 1290.97 189.844ZM1292.8 178.85C1297.2 178.85 1301.23 177.954 1304.89 176.163C1308.56 174.371 1311.45 171.928 1313.57 168.834C1315.68 165.739 1316.74 162.36 1316.74 158.695V155.397H1292.55C1282.29 155.397 1277.16 159.224 1277.16 166.879C1277.16 170.544 1278.55 173.475 1281.32 175.674C1284.09 177.791 1287.91 178.85 1292.8 178.85ZM1351.11 188.5V129.379H1344.03V115.209H1358.68V128.89H1363.81C1365.85 124.411 1368.99 120.909 1373.22 118.385C1377.54 115.86 1382.58 114.598 1388.37 114.598H1394.35V126.325H1387.63C1380.3 126.325 1374.64 128.483 1370.65 132.799C1366.66 137.115 1364.67 142.937 1364.67 150.267V188.5H1351.11ZM1403.92 188.5V85.8926H1417.6V148.19H1418.09L1453.39 115.209H1470.12L1436.53 145.503L1472.93 188.5H1456.32L1427.25 153.931L1417.6 161.749V188.5H1403.92ZM1511.2 189.966C1503.54 189.966 1496.9 188.419 1491.28 185.324C1485.67 182.148 1481.31 177.669 1478.21 171.887C1475.2 166.106 1473.69 159.346 1473.69 151.61C1473.69 143.874 1475.2 137.196 1478.21 131.577C1481.31 125.877 1485.62 121.479 1491.16 118.385C1496.7 115.29 1503.17 113.743 1510.58 113.743C1517.67 113.743 1523.78 115.168 1528.91 118.018C1534.12 120.869 1538.15 124.9 1541 130.111C1543.85 135.323 1545.28 141.512 1545.28 148.679V154.175H1486.89C1487.29 161.83 1489.62 167.816 1493.85 172.132C1498.17 176.366 1503.91 178.484 1511.07 178.484C1516.04 178.484 1520.23 177.466 1523.65 175.43C1527.08 173.312 1529.44 170.218 1530.74 166.146H1544.66C1542.87 173.72 1539.01 179.583 1533.06 183.736C1527.2 187.889 1519.91 189.966 1511.2 189.966ZM1487.38 144.159H1532.08C1531.43 138.133 1529.19 133.45 1525.36 130.111C1521.62 126.773 1516.65 125.103 1510.46 125.103C1504.35 125.103 1499.27 126.773 1495.19 130.111C1491.12 133.45 1488.52 138.133 1487.38 144.159ZM1575.97 188.5C1572.06 188.5 1569.01 187.523 1566.81 185.568C1564.69 183.532 1563.63 180.519 1563.63 176.529V125.714H1549.95V115.209H1563.76V93.2217H1577.19V115.209H1596.37V125.714H1577.31V177.751H1598.32V188.5H1575.97Z" fill="black"/>
<defs>
<clipPath id="clip0_1706_414">
<rect width="488.607" height="267.697" fill="white" transform="translate(0.546875 0.151855)"/>
</clipPath>
</defs>
</svg>
